<svg xmlns="http://www.w3.org/2000/svg" width="83.506" height="32.687"><defs><clipPath id="a"><path data-name="Clip 2" d="M0 0h28.01v32.274H0z" transform="translate(.126 .205)" fill="none"/></clipPath><clipPath id="b"><path data-name="Clip 9" d="M0 0h26.72v32.687H0z" transform="translate(.282 .205)" fill="none"/></clipPath></defs><g data-name="Group 40"><g data-name="Group 3"><path data-name="Clip 2" d="M30.843 0h28.01v32.274h-28.01z" fill="none"/><g data-name="Group 3" clip-path="url(#a)" transform="translate(30.717 -.205)"><path data-name="Fill 1" d="M26.119 6.761v19.484c0 3.759-.367 4.814 2.017 5.455v.78h-9.535v-.78c1.238-.458 1.1-1.7 1.1-5.455v-8.757H8.607v8.757c0 3.759-.183 5 1.1 5.455v.78H.126v-.78c2.429-.641 2.063-1.7 2.063-5.455V6.761c0-3.53.137-5.364-2.063-5.776v-.78h9.581v.78c-1.283.412-1.1 2.246-1.1 5.776v9.811h11.094V6.761c0-3.53.184-5.364-1.1-5.776v-.78h9.535v.78c-2.155.412-2.017 2.246-2.017 5.776" fill="#fff"/></g></g><path data-name="Fill 4" d="M83.506 31.494v.78h-7.247c-4.86 0-5.96-1.329-10.773-8.3a289.733 289.733 0 00-4.627-6.374l6.326-7.652S75.07.962 66.91.78V0h15.129v.78c-3.072 0-6.28.091-16.18 12.79 10.724 14.349 11.183 14.945 11.183 14.945a7.482 7.482 0 006.464 2.98" fill="#fff"/><path data-name="Fill 6" d="M7.656 20.728l-.113-3.088a.25.25 0 00-.5 0 726.13 726.13 0 00-.167 3.092c-.012.837-.289 10.762-6.876 10.762v.78h13.891v-.78c-6.069 0-6.232-9.954-6.235-10.766" fill="#fff"/><g data-name="Group 10"><path data-name="Clip 9" d="M1.696 0h26.72v32.687H1.696z" fill="none"/><g data-name="Group 10" clip-path="url(#b)" transform="translate(1.414 -.205)"><path data-name="Fill 8" d="M26.872 14.982a.212.212 0 00-.278.114l-1.562 3.04c-1.355 2.637-2.773 3.749-4.336.714L11.834.205H.282v.78a5.614 5.614 0 015.18 3.163l13.62 28.744h.78l.732-1.825 6.4-15.813a.212.212 0 00-.116-.273" fill="#fff"/></g></g></g></svg>